<?xml version="1.0" encoding="UTF-8" standalone="no"?>
<!DOCTYPE svg PUBLIC "-//W3C//DTD SVG 1.1//EN"
 "http://www.w3.org/Graphics/SVG/1.1/DTD/svg11.dtd">
<!-- Generated by graphviz version 14.0.2 (20251019.1705)
 -->
<!-- Pages: 1 -->
<svg width="244pt" height="132pt"
 viewBox="0.00 0.00 244.00 132.00" xmlns="http://www.w3.org/2000/svg" xmlns:xlink="http://www.w3.org/1999/xlink">
<g id="graph0" class="graph" transform="scale(1 1) rotate(0) translate(4 128)">
<polygon fill="white" stroke="none" points="-4,4 -4,-128 239.62,-128 239.62,4 -4,4"/>
<g id="clust2" class="cluster">
<title>cluster_associated</title>
</g>
<!-- January -->
<g id="node1" class="node">
<title>January</title>
<g id="a_node1"><a xlink:href="../January" xlink:title="&lt;TABLE&gt;">
<polygon fill="lightgray" stroke="none" points="1,-34 1,-50.25 146.25,-50.25 146.25,-34 1,-34"/>
<text xml:space="preserve" text-anchor="start" x="52.25" y="-37.85" font-family="Arial" font-size="12.00">January</text>
<text xml:space="preserve" text-anchor="start" x="2" y="-21.6" font-family="Arial" font-size="12.00">«refined» month: xsd:string</text>
<polygon fill="black" stroke="black" points="0,-34 0,-34 147.25,-34 147.25,-34 0,-34"/>
<polygon fill="none" stroke="black" points="0,-16.75 0,-51.25 147.25,-51.25 147.25,-16.75 0,-16.75"/>
</a>
</g>
</g>
<!-- DateTimeDescription -->
<g id="node3" class="node">
<title>DateTimeDescription</title>
<g id="a_node3"><a xlink:href="../DateTimeDescription" xlink:title="&lt;TABLE&gt;">
<polygon fill="lightgray" stroke="none" points="16.38,-97.88 16.38,-114.12 130.88,-114.12 130.88,-97.88 16.38,-97.88"/>
<text xml:space="preserve" text-anchor="start" x="17.38" y="-101.72" font-family="Arial" font-size="12.00">DateTimeDescription</text>
<polygon fill="none" stroke="black" points="15.38,-96.88 15.38,-115.12 131.88,-115.12 131.88,-96.88 15.38,-96.88"/>
</a>
</g>
</g>
<!-- January&#45;&gt;DateTimeDescription -->
<g id="edge1" class="edge">
<title>January&#45;&gt;DateTimeDescription</title>
<path fill="none" stroke="black" d="M73.62,-51.79C73.62,-59.25 73.62,-68.24 73.62,-76.69"/>
<polygon fill="none" stroke="black" points="70.13,-76.54 73.63,-86.54 77.13,-76.54 70.13,-76.54"/>
</g>
<!-- Invis -->
</g>
</svg>
