<?xml version="1.0" encoding="UTF-8" standalone="no"?>
<!DOCTYPE svg PUBLIC "-//W3C//DTD SVG 1.1//EN"
 "http://www.w3.org/Graphics/SVG/1.1/DTD/svg11.dtd">
<!-- Generated by graphviz version 14.0.2 (20251019.1705)
 -->
<!-- Pages: 1 -->
<svg width="308pt" height="212pt"
 viewBox="0.00 0.00 308.00 212.00" xmlns="http://www.w3.org/2000/svg" xmlns:xlink="http://www.w3.org/1999/xlink">
<g id="graph0" class="graph" transform="scale(1 1) rotate(0) translate(4 208)">
<polygon fill="white" stroke="none" points="-4,4 -4,-208 303.5,-208 303.5,4 -4,4"/>
<g id="clust2" class="cluster">
<title>cluster_associated</title>
</g>
<!-- MonthOfYear -->
<g id="node1" class="node">
<title>MonthOfYear</title>
<g id="a_node1"><a xlink:href="../MonthOfYear" xlink:title="&lt;TABLE&gt;">
<polygon fill="lightgray" stroke="none" points="1,-114.75 1,-131 210,-131 210,-114.75 1,-114.75"/>
<text xml:space="preserve" text-anchor="start" x="71" y="-118.6" font-family="Arial" font-size="12.00">MonthOfYear</text>
<text xml:space="preserve" text-anchor="start" x="2" y="-102.35" font-family="Arial" font-size="12.00">«refined» day: xsd:string</text>
<text xml:space="preserve" text-anchor="start" x="2" y="-86.1" font-family="Arial" font-size="12.00">hour: xsd:nonNegativeInteger</text>
<text xml:space="preserve" text-anchor="start" x="2" y="-69.85" font-family="Arial" font-size="12.00">minute: xsd:nonNegativeInteger</text>
<text xml:space="preserve" text-anchor="start" x="2" y="-53.6" font-family="Arial" font-size="12.00">«refined» «exactly 1» month: xsd:string</text>
<text xml:space="preserve" text-anchor="start" x="2" y="-37.35" font-family="Arial" font-size="12.00">second: xsd:decimal</text>
<text xml:space="preserve" text-anchor="start" x="2" y="-21.1" font-family="Arial" font-size="12.00">week: xsd:nonNegativeInteger</text>
<text xml:space="preserve" text-anchor="start" x="2" y="-4.85" font-family="Arial" font-size="12.00">«refined» year: xsd:string</text>
<polygon fill="black" stroke="black" points="0,-114.75 0,-114.75 211,-114.75 211,-114.75 0,-114.75"/>
<polygon fill="none" stroke="black" points="0,0 0,-132 211,-132 211,0 0,0"/>
</a>
</g>
</g>
<!-- DateTimeDescription -->
<g id="node3" class="node">
<title>DateTimeDescription</title>
<g id="a_node3"><a xlink:href="../DateTimeDescription" xlink:title="&lt;TABLE&gt;">
<polygon fill="lightgray" stroke="none" points="48.25,-177.88 48.25,-194.12 162.75,-194.12 162.75,-177.88 48.25,-177.88"/>
<text xml:space="preserve" text-anchor="start" x="49.25" y="-181.72" font-family="Arial" font-size="12.00">DateTimeDescription</text>
<polygon fill="none" stroke="black" points="47.25,-176.88 47.25,-195.12 163.75,-195.12 163.75,-176.88 47.25,-176.88"/>
</a>
</g>
</g>
<!-- MonthOfYear&#45;&gt;DateTimeDescription -->
<g id="edge1" class="edge">
<title>MonthOfYear&#45;&gt;DateTimeDescription</title>
<path fill="none" stroke="black" d="M105.5,-131.76C105.5,-140.49 105.5,-149.05 105.5,-156.66"/>
<polygon fill="none" stroke="black" points="102,-156.58 105.5,-166.58 109,-156.58 102,-156.58"/>
</g>
<!-- Invis -->
</g>
</svg>
