<?xml version="1.0" encoding="UTF-8" standalone="no"?>
<!DOCTYPE svg PUBLIC "-//W3C//DTD SVG 1.1//EN"
 "http://www.w3.org/Graphics/SVG/1.1/DTD/svg11.dtd">
<!-- Generated by graphviz version 14.0.2 (20251019.1705)
 -->
<!-- Pages: 1 -->
<svg width="308pt" height="212pt"
 viewBox="0.00 0.00 308.00 212.00" xmlns="http://www.w3.org/2000/svg" xmlns:xlink="http://www.w3.org/1999/xlink">
<g id="graph0" class="graph" transform="scale(1 1) rotate(0) translate(4 208)">
<polygon fill="white" stroke="none" points="-4,4 -4,-208 303.5,-208 303.5,4 -4,4"/>
<g id="clust2" class="cluster">
<title>cluster_associated</title>
</g>
<!-- DurationDescription -->
<g id="node1" class="node">
<title>DurationDescription</title>
<g id="a_node1"><a xlink:href="../DurationDescription" xlink:title="&lt;TABLE&gt;">
<polygon fill="lightgray" stroke="none" points="1,-114.75 1,-131 210,-131 210,-114.75 1,-114.75"/>
<text xml:space="preserve" text-anchor="start" x="52.25" y="-118.6" font-family="Arial" font-size="12.00">DurationDescription</text>
<text xml:space="preserve" text-anchor="start" x="2" y="-102.35" font-family="Arial" font-size="12.00">«refined» «only» days: xsd:decimal</text>
<text xml:space="preserve" text-anchor="start" x="2" y="-86.1" font-family="Arial" font-size="12.00">«refined» «only» hours: xsd:decimal</text>
<text xml:space="preserve" text-anchor="start" x="2" y="-69.85" font-family="Arial" font-size="12.00">«refined» «only» minutes: xsd:decimal</text>
<text xml:space="preserve" text-anchor="start" x="2" y="-53.6" font-family="Arial" font-size="12.00">«refined» «only» months: xsd:decimal</text>
<text xml:space="preserve" text-anchor="start" x="2" y="-37.35" font-family="Arial" font-size="12.00">«refined» «only» seconds: xsd:decimal</text>
<text xml:space="preserve" text-anchor="start" x="2" y="-21.1" font-family="Arial" font-size="12.00">«refined» «only» weeks: xsd:decimal</text>
<text xml:space="preserve" text-anchor="start" x="2" y="-4.85" font-family="Arial" font-size="12.00">«refined» «only» years: xsd:decimal</text>
<polygon fill="black" stroke="black" points="0,-114.75 0,-114.75 211,-114.75 211,-114.75 0,-114.75"/>
<polygon fill="none" stroke="black" points="0,0 0,-132 211,-132 211,0 0,0"/>
</a>
</g>
</g>
<!-- GeneralDurationDescription -->
<g id="node3" class="node">
<title>GeneralDurationDescription</title>
<g id="a_node3"><a xlink:href="../GeneralDurationDescription" xlink:title="&lt;TABLE&gt;">
<polygon fill="lightgray" stroke="none" points="29.88,-177.88 29.88,-194.12 181.12,-194.12 181.12,-177.88 29.88,-177.88"/>
<text xml:space="preserve" text-anchor="start" x="30.88" y="-181.72" font-family="Arial" font-size="12.00">GeneralDurationDescription</text>
<polygon fill="none" stroke="black" points="28.88,-176.88 28.88,-195.12 182.12,-195.12 182.12,-176.88 28.88,-176.88"/>
</a>
</g>
</g>
<!-- DurationDescription&#45;&gt;GeneralDurationDescription -->
<g id="edge1" class="edge">
<title>DurationDescription&#45;&gt;GeneralDurationDescription</title>
<path fill="none" stroke="black" d="M105.5,-131.76C105.5,-140.49 105.5,-149.05 105.5,-156.66"/>
<polygon fill="none" stroke="black" points="102,-156.58 105.5,-166.58 109,-156.58 102,-156.58"/>
</g>
<!-- Invis -->
</g>
</svg>
