<?xml version="1.0" encoding="UTF-8" standalone="no"?>
<!DOCTYPE svg PUBLIC "-//W3C//DTD SVG 1.1//EN"
 "http://www.w3.org/Graphics/SVG/1.1/DTD/svg11.dtd">
<!-- Generated by graphviz version 14.0.2 (20251019.1705)
 -->
<!-- Pages: 1 -->
<svg width="281pt" height="328pt"
 viewBox="0.00 0.00 281.00 328.00" xmlns="http://www.w3.org/2000/svg" xmlns:xlink="http://www.w3.org/1999/xlink">
<g id="graph0" class="graph" transform="scale(1 1) rotate(0) translate(4 324)">
<polygon fill="white" stroke="none" points="-4,4 -4,-324 276.75,-324 276.75,4 -4,4"/>
<g id="clust2" class="cluster">
<title>cluster_associated</title>
</g>
<!-- GeneralDurationDescription -->
<g id="node1" class="node">
<title>GeneralDurationDescription</title>
<g id="a_node1"><a xlink:href="../GeneralDurationDescription" xlink:title="&lt;TABLE&gt;">
<polygon fill="lightgray" stroke="none" points="106.25,-229.75 106.25,-246 271.75,-246 271.75,-229.75 106.25,-229.75"/>
<text xml:space="preserve" text-anchor="start" x="114.38" y="-233.6" font-family="Arial" font-size="12.00">GeneralDurationDescription</text>
<text xml:space="preserve" text-anchor="start" x="107.25" y="-217.35" font-family="Arial" font-size="12.00">«max 1» days: xsd:decimal</text>
<text xml:space="preserve" text-anchor="start" x="107.25" y="-201.1" font-family="Arial" font-size="12.00">«max 1» hours: xsd:decimal</text>
<text xml:space="preserve" text-anchor="start" x="107.25" y="-184.85" font-family="Arial" font-size="12.00">«max 1» minutes: xsd:decimal</text>
<text xml:space="preserve" text-anchor="start" x="107.25" y="-168.6" font-family="Arial" font-size="12.00">«max 1» months: xsd:decimal</text>
<text xml:space="preserve" text-anchor="start" x="107.25" y="-152.35" font-family="Arial" font-size="12.00">«max 1» seconds: xsd:decimal</text>
<text xml:space="preserve" text-anchor="start" x="107.25" y="-136.1" font-family="Arial" font-size="12.00">«max 1» weeks: xsd:decimal</text>
<text xml:space="preserve" text-anchor="start" x="107.25" y="-119.85" font-family="Arial" font-size="12.00">«max 1» years: xsd:decimal</text>
<polygon fill="black" stroke="black" points="105.25,-229.75 105.25,-229.75 272.75,-229.75 272.75,-229.75 105.25,-229.75"/>
<polygon fill="none" stroke="black" points="105.25,-115 105.25,-247 272.75,-247 272.75,-115 105.25,-115"/>
</a>
</g>
</g>
<!-- Invis -->
<!-- GeneralDurationDescription&#45;&gt;Invis -->
<!-- owl_Thing -->
<g id="node3" class="node">
<title>owl_Thing</title>
<polygon fill="lightgray" stroke="none" points="16.75,-25.88 16.75,-42.12 71.25,-42.12 71.25,-25.88 16.75,-25.88"/>
<text xml:space="preserve" text-anchor="start" x="17.75" y="-29.73" font-family="Arial" font-size="12.00">owl:Thing</text>
<polygon fill="none" stroke="black" points="15.75,-24.88 15.75,-43.12 72.25,-43.12 72.25,-24.88 15.75,-24.88"/>
</g>
<!-- GeneralDurationDescription&#45;&gt;owl_Thing -->
<g id="edge4" class="edge">
<title>GeneralDurationDescription&#45;&gt;owl_Thing</title>
<path fill="none" stroke="black" d="M124.13,-115.13C104.54,-95.54 84.19,-75.19 68.9,-59.9"/>
<polygon fill="black" stroke="black" points="71.58,-57.63 62.04,-53.04 66.63,-62.58 71.58,-57.63"/>
<text xml:space="preserve" text-anchor="middle" x="135.01" y="-86.55" font-family="Arial" font-size="11.00"> hasTRS </text>
<text xml:space="preserve" text-anchor="middle" x="135.01" y="-73.05" font-family="Arial" font-size="11.00"> «exactly 1» &#160;</text>
</g>
<!-- TemporalDuration -->
<g id="node4" class="node">
<title>TemporalDuration</title>
<g id="a_node4"><a xlink:href="../TemporalDuration" xlink:title="&lt;TABLE&gt;">
<polygon fill="lightgray" stroke="none" points="140.38,-293.88 140.38,-310.12 237.62,-310.12 237.62,-293.88 140.38,-293.88"/>
<text xml:space="preserve" text-anchor="start" x="141.38" y="-297.73" font-family="Arial" font-size="12.00">TemporalDuration</text>
<polygon fill="none" stroke="black" points="139.38,-292.88 139.38,-311.12 238.62,-311.12 238.62,-292.88 139.38,-292.88"/>
</a>
</g>
</g>
<!-- GeneralDurationDescription&#45;&gt;TemporalDuration -->
<g id="edge1" class="edge">
<title>GeneralDurationDescription&#45;&gt;TemporalDuration</title>
<path fill="none" stroke="black" d="M189,-246.76C189,-255.87 189,-264.82 189,-272.73"/>
<polygon fill="none" stroke="black" points="185.5,-272.69 189,-282.69 192.5,-272.69 185.5,-272.69"/>
</g>
<!-- Invis&#45;&gt;owl_Thing -->
</g>
</svg>
