<?xml version="1.0" encoding="UTF-8" standalone="no"?>
<!DOCTYPE svg PUBLIC "-//W3C//DTD SVG 1.1//EN"
 "http://www.w3.org/Graphics/SVG/1.1/DTD/svg11.dtd">
<!-- Generated by graphviz version 14.0.2 (20251019.1705)
 -->
<!-- Pages: 1 -->
<svg width="182pt" height="132pt"
 viewBox="0.00 0.00 182.00 132.00" xmlns="http://www.w3.org/2000/svg" xmlns:xlink="http://www.w3.org/1999/xlink">
<g id="graph0" class="graph" transform="scale(1 1) rotate(0) translate(4 128)">
<polygon fill="white" stroke="none" points="-4,4 -4,-128 177.5,-128 177.5,4 -4,4"/>
<g id="clust2" class="cluster">
<title>cluster_associated</title>
</g>
<!-- TimePosition -->
<g id="node1" class="node">
<title>TimePosition</title>
<g id="a_node1"><a xlink:href="../TimePosition" xlink:title="&lt;TABLE&gt;">
<polygon fill="lightgray" stroke="none" points="12.62,-25.88 12.62,-42.12 84.38,-42.12 84.38,-25.88 12.62,-25.88"/>
<text xml:space="preserve" text-anchor="start" x="13.62" y="-29.73" font-family="Arial" font-size="12.00">TimePosition</text>
<polygon fill="none" stroke="black" points="11.62,-24.88 11.62,-43.12 85.38,-43.12 85.38,-24.88 11.62,-24.88"/>
</a>
</g>
</g>
<!-- TemporalPosition -->
<g id="node3" class="node">
<title>TemporalPosition</title>
<g id="a_node3"><a xlink:href="../TemporalPosition" xlink:title="&lt;TABLE&gt;">
<polygon fill="lightgray" stroke="none" points="1,-97.88 1,-114.12 96,-114.12 96,-97.88 1,-97.88"/>
<text xml:space="preserve" text-anchor="start" x="2" y="-101.72" font-family="Arial" font-size="12.00">TemporalPosition</text>
<polygon fill="none" stroke="black" points="0,-96.88 0,-115.12 97,-115.12 97,-96.88 0,-96.88"/>
</a>
</g>
</g>
<!-- TimePosition&#45;&gt;TemporalPosition -->
<g id="edge1" class="edge">
<title>TimePosition&#45;&gt;TemporalPosition</title>
<path fill="none" stroke="black" d="M48.5,-51.79C48.5,-59.25 48.5,-68.24 48.5,-76.69"/>
<polygon fill="none" stroke="black" points="45,-76.54 48.5,-86.54 52,-76.54 45,-76.54"/>
</g>
<!-- Invis -->
</g>
</svg>
