<?xml version="1.0" encoding="UTF-8" standalone="no"?>
<!DOCTYPE svg PUBLIC "-//W3C//DTD SVG 1.1//EN"
 "http://www.w3.org/Graphics/SVG/1.1/DTD/svg11.dtd">
<!-- Generated by graphviz version 14.0.2 (20251019.1705)
 -->
<!-- Pages: 1 -->
<svg width="316pt" height="212pt"
 viewBox="0.00 0.00 316.00 212.00" xmlns="http://www.w3.org/2000/svg" xmlns:xlink="http://www.w3.org/1999/xlink">
<g id="graph0" class="graph" transform="scale(1 1) rotate(0) translate(4 208)">
<polygon fill="white" stroke="none" points="-4,4 -4,-208 312,-208 312,4 -4,4"/>
<g id="clust2" class="cluster">
<title>cluster_associated</title>
</g>
<!-- Year -->
<g id="node1" class="node">
<title>Year</title>
<g id="a_node1"><a xlink:href="../Year" xlink:title="&lt;TABLE&gt;">
<polygon fill="lightgray" stroke="none" points="1,-114.75 1,-131 219,-131 219,-114.75 1,-114.75"/>
<text xml:space="preserve" text-anchor="start" x="98" y="-118.6" font-family="Arial" font-size="12.00">Year</text>
<text xml:space="preserve" text-anchor="start" x="2" y="-102.35" font-family="Arial" font-size="12.00">«refined» days: xsd:decimal</text>
<text xml:space="preserve" text-anchor="start" x="2" y="-86.1" font-family="Arial" font-size="12.00">«refined» hours: xsd:decimal</text>
<text xml:space="preserve" text-anchor="start" x="2" y="-69.85" font-family="Arial" font-size="12.00">«refined» minutes: xsd:decimal</text>
<text xml:space="preserve" text-anchor="start" x="2" y="-53.6" font-family="Arial" font-size="12.00">«refined» months: xsd:decimal</text>
<text xml:space="preserve" text-anchor="start" x="2" y="-37.35" font-family="Arial" font-size="12.00">«refined» seconds: xsd:decimal</text>
<text xml:space="preserve" text-anchor="start" x="2" y="-21.1" font-family="Arial" font-size="12.00">«refined» weeks: xsd:decimal</text>
<text xml:space="preserve" text-anchor="start" x="2" y="-4.85" font-family="Arial" font-size="12.00">«refined» «exactly 1» years: xsd:decimal</text>
<polygon fill="black" stroke="black" points="0,-114.75 0,-114.75 220,-114.75 220,-114.75 0,-114.75"/>
<polygon fill="none" stroke="black" points="0,0 0,-132 220,-132 220,0 0,0"/>
</a>
</g>
</g>
<!-- DurationDescription -->
<g id="node3" class="node">
<title>DurationDescription</title>
<g id="a_node3"><a xlink:href="../DurationDescription" xlink:title="&lt;TABLE&gt;">
<polygon fill="lightgray" stroke="none" points="55.75,-177.88 55.75,-194.12 164.25,-194.12 164.25,-177.88 55.75,-177.88"/>
<text xml:space="preserve" text-anchor="start" x="56.75" y="-181.72" font-family="Arial" font-size="12.00">DurationDescription</text>
<polygon fill="none" stroke="black" points="54.75,-176.88 54.75,-195.12 165.25,-195.12 165.25,-176.88 54.75,-176.88"/>
</a>
</g>
</g>
<!-- Year&#45;&gt;DurationDescription -->
<g id="edge1" class="edge">
<title>Year&#45;&gt;DurationDescription</title>
<path fill="none" stroke="black" d="M110,-131.76C110,-140.49 110,-149.05 110,-156.66"/>
<polygon fill="none" stroke="black" points="106.5,-156.58 110,-166.58 113.5,-156.58 106.5,-156.58"/>
</g>
<!-- Invis -->
</g>
</svg>
