<?xml version="1.0" encoding="UTF-8" standalone="no"?>
<!DOCTYPE svg PUBLIC "-//W3C//DTD SVG 1.1//EN"
 "http://www.w3.org/Graphics/SVG/1.1/DTD/svg11.dtd">
<!-- Generated by graphviz version 14.1.3 (20260303.0454)
 -->
<!-- Pages: 1 -->
<svg width="256pt" height="148pt"
 viewBox="0.00 0.00 256.00 148.00" xmlns="http://www.w3.org/2000/svg" xmlns:xlink="http://www.w3.org/1999/xlink">
<g id="graph0" class="graph" transform="scale(1 1) rotate(0) translate(4 143.5)">
<polygon fill="white" stroke="none" points="-4,4 -4,-143.5 252,-143.5 252,4 -4,4"/>
<g id="clust3" class="cluster">
<title>cluster_associated</title>
</g>
<!-- GeneralDateTimeDescription -->
<g id="node1" class="node">
<title>GeneralDateTimeDescription</title>
<g id="a_node1"><a xlink:href="../GeneralDateTimeDescription" xlink:title="&lt;TABLE&gt;">
<polygon fill="lightgray" stroke="none" points="1.38,-113.38 1.38,-129.62 158.62,-129.62 158.62,-113.38 1.38,-113.38"/>
<text xml:space="preserve" text-anchor="start" x="2.38" y="-117.38" font-family="Arial" font-size="12.00">GeneralDateTimeDescription</text>
<polygon fill="none" stroke="black" points="0.38,-112.38 0.38,-130.62 159.62,-130.62 159.62,-112.38 0.38,-112.38"/>
</a>
</g>
</g>
<!-- DateTimeDescription -->
<g id="node2" class="node">
<title>DateTimeDescription</title>
<g id="a_node2"><a xlink:href="../DateTimeDescription" xlink:title="&lt;TABLE&gt;">
<polygon fill="lightgray" stroke="none" points="1,-50.25 1,-66.5 159,-66.5 159,-50.25 1,-50.25"/>
<text xml:space="preserve" text-anchor="start" x="23.75" y="-54.25" font-family="Arial" font-size="12.00">DateTimeDescription</text>
<text xml:space="preserve" text-anchor="start" x="2" y="-38" font-family="Arial" font-size="12.00">redefines day : xsd:gDay</text>
<text xml:space="preserve" text-anchor="start" x="2" y="-21.75" font-family="Arial" font-size="12.00">redefines month : xsd:gMonth</text>
<text xml:space="preserve" text-anchor="start" x="2" y="-5.5" font-family="Arial" font-size="12.00">redefines year : xsd:gYear</text>
<polygon fill="none" stroke="black" points="0,-0.5 0,-67.5 160,-67.5 160,-0.5 0,-0.5"/>
</a>
</g>
</g>
<!-- DateTimeDescription&#45;&gt;GeneralDateTimeDescription -->
<g id="edge1" class="edge">
<title>DateTimeDescription&#45;&gt;GeneralDateTimeDescription</title>
<path fill="none" stroke="black" d="M80,-67.43C80,-75.62 80,-84.33 80,-92.29"/>
<polygon fill="none" stroke="black" points="76.5,-92.09 80,-102.09 83.5,-92.09 76.5,-92.09"/>
</g>
<!-- Invis -->
</g>
</svg>
